<svg width="105" height="48" viewBox="0 0 105 48" fill="none" xmlns="http://www.w3.org/2000/svg">
<path d="M100.129 6.58643H100.488V6.74076L100.129 7.10086L99.7192 7.46096L98.8477 8.3355L98.4888 8.74705L97.7197 9.57014L97.3608 9.98169L96.6943 10.7533L95.9253 11.5764L93.0542 14.4573L92.6953 14.8688L92.1313 15.4347H92.0288L91.9263 15.6405L87.4146 20.1675L87.0557 20.579L81.2109 26.4435L80.9546 26.6493L80.5957 27.0609L79.1602 28.5013H79.0576L78.9551 28.7071L74.751 32.9254L74.3408 33.2855L71.7261 35.9091L71.3672 36.3207L70.5981 37.0409L69.9316 37.6582L69.3677 38.2241L68.0347 39.2529L67.3682 39.8703L66.958 40.1789L65.9839 40.7962L65.2148 41.3621L64.3945 41.8765L63.2153 42.4939L61.2158 43.4713L60.1904 43.8828L57.1655 44.7574L55.3198 45.1689L53.2178 45.4261H51.9873L50.3979 45.2718L48.501 44.9117L46.3989 44.2944L44.5532 43.6771L43.1689 42.9569L42.041 42.3395L41.3745 41.928L40.4004 41.2078L39.5288 40.4876L38.811 39.8703L38.2471 39.4073L38.3496 39.2015L38.9648 38.5842L39.375 38.2241L39.7339 37.8125L40.1953 37.2466L40.9644 36.5264L41.272 36.2692L41.6309 35.8577L42.0923 35.2918L43.1177 34.2629L43.4766 33.8514L43.8354 33.4913L44.1943 33.0797L44.7583 32.4624L45.3735 31.7937L46.5527 30.6105L46.9116 30.1989L47.3218 29.8388L48.1421 28.9643L48.501 28.5527L48.9624 28.1412L49.3213 27.7296L49.9365 27.0609L50.2954 26.6493L51.0132 25.8777L51.3721 25.4661L52.0386 24.7459L52.3975 24.3344L53.0127 23.7171L53.3716 23.3055L55.3198 21.3507L55.6787 20.8362L56.0889 20.116L56.6016 19.8074L57.832 19.19L59.2163 18.6242L60.7544 17.904L61.3696 17.5953L61.8823 17.2866L62.8564 16.9265L64.0869 16.3607L64.9072 15.9491L66.2402 15.3318L67.2144 15.0746L67.6245 15.0231L67.6758 15.0746L67.6245 15.4347L67.1118 16.1034L66.6504 16.6179L66.189 17.0809H66.0864L65.9839 17.2866L65.6763 17.6982L65.2661 18.3155L64.8047 18.8299L64.3433 19.3958L63.728 20.2703L63.2666 20.8362L62.7026 21.505L62.1899 22.1738L61.6772 22.7396L61.1133 23.5113L60.7031 24.0772L60.2417 24.643L59.6777 25.2604L59.0625 26.1349L58.5498 26.7008L58.0884 27.2666L57.6782 27.7811L57.2168 28.3984L56.499 29.3244L55.8838 30.1475L55.2173 30.9191L54.7046 31.6393L54.2432 32.2052L53.7817 32.7196L53.3716 33.1826L52.9102 33.7999L52.3462 34.4687L51.731 35.1375L51.2183 35.8577L50.603 36.5264L50.0391 37.1438L49.4238 38.0183L48.1934 39.4587L47.6294 40.1789L46.8091 41.2078L46.1938 41.928L45.8862 42.391L45.835 42.5968L46.4502 42.3395L47.168 41.8765L47.6294 41.5164L48.2446 40.7962L48.6548 40.3847L49.1675 39.9731L50.2441 38.8928L50.8081 38.4298L51.4746 37.864L52.3462 36.9894L53.1152 36.4236L53.6279 35.9606L54.2944 35.2918L54.9097 34.8288L55.4736 34.4173L56.2939 33.5942L56.8579 33.1312L57.4731 32.6167L58.0371 32.1538L58.7036 31.5364L59.8315 30.6105L60.3955 30.096L60.9595 29.633L61.7285 28.9128L62.7026 28.1926L63.3179 27.6267L63.8818 27.1638L64.292 26.7522L65.0098 26.1863L65.625 25.6205L66.0352 25.2604L66.5991 24.7974L67.1631 24.3858L67.7783 23.8199L68.1885 23.4084L68.855 22.894L69.4189 22.5339L69.7778 22.1738L70.188 21.8136L70.8032 21.2478L71.6748 20.579L72.5464 19.8588L73.0591 19.3958L73.623 18.8814L74.4946 18.2126L75.0586 17.7496L75.6226 17.1838L76.2891 16.7208L76.853 16.3092L77.1094 16.052H77.2119L77.3145 15.8462L77.8271 15.3832L78.4937 14.9717L78.9551 14.6116L79.5703 14.0457L80.1343 13.5827L81.0571 12.914L81.7749 12.2966L82.3901 11.7822L82.9541 11.3707L83.5181 10.9077L84.1333 10.3418L84.6973 9.93024L85.2612 9.46725L85.6714 9.05571L86.2354 8.59272L87.0557 7.92395L87.7222 7.20375L88.4399 6.74076L88.5425 6.68931L89.1577 6.63787L100.129 6.58643Z" fill="#1E1B21"/>
<path d="M6.81885 6.48364H8.15186L9.38232 6.53509L13.0737 6.63797L14.3042 6.68942L14.9194 6.7923L15.3809 7.15241L15.7397 7.51251L16.2012 8.07839L18.1494 10.0332L18.5083 10.4448L19.2773 11.2164L19.6875 11.5765L20.0464 11.9366L20.4053 12.3482L21.2769 13.2227L21.687 13.5828L22.3022 14.2516L22.8662 14.8175L23.4302 15.2805L24.3018 16.155L24.6606 16.5665L25.1733 17.0295L25.5835 17.3896L26.3525 18.1613L26.7114 18.5728L27.5317 19.2416L28.0444 19.756L28.5059 20.3219L29.2236 20.9392L29.7876 21.4022L30.6592 22.2767L31.2231 22.7397L31.8896 23.3571L32.5049 24.0258L33.0688 24.5403L33.6328 25.0032L34.6582 26.0321L35.0684 26.3922L35.8374 27.1124L36.5039 27.7812L37.1704 28.1927L37.478 28.2442L38.3496 27.987L39.3237 27.4725L40.3491 27.0095L41.7334 26.4951L43.0664 25.9292L45.0659 25.0547L45.8862 24.746L46.9116 24.3345L47.8857 23.9229L48.6035 23.5628L49.5776 23.1513L50.2441 22.8941L51.7822 22.4311L52.4487 22.1224L53.5767 21.7109L53.7817 21.7623L53.2178 22.2767L52.6538 22.7397L52.1411 23.2027L51.5259 23.9229L50.9619 24.5403L50.4492 25.0032L49.6802 25.7749L49.3213 26.1864L48.2959 27.2153L47.937 27.6269L46.0913 29.4788L45.7324 29.8904L43.9893 31.6394L43.6304 32.051L43.0151 32.6683L42.605 33.0284L42.041 33.5943L41.5796 34.1602L40.5029 35.2405L40.0415 35.8063L39.4775 36.4237L39.1187 36.8352L38.042 37.9155L37.6831 38.3271L37.3755 38.5843L37.1191 38.5328L36.6064 38.0698L36.145 37.5554L35.6836 36.9895L34.9146 36.2693L34.4019 35.7549L33.9404 35.189L33.5815 34.8289L33.1714 34.4688L32.5049 33.8L32.0435 33.2342L31.377 32.5654L30.9668 32.2053L30.3516 31.5365L29.9927 31.0736L29.48 30.5591L29.0698 30.199L28.6597 29.7875L28.0957 29.0673L27.4292 28.3985L27.019 28.0384L26.5576 27.5754L26.1987 27.1639L25.5835 26.4951L24.6094 25.5177L24.2505 25.1061L23.4814 24.3345L23.1226 24.0258L22.7637 23.6143L22.1484 22.9455L21.7896 22.534L21.123 21.8652L20.7642 21.4537L20.1489 20.7334L19.585 20.1676L19.2261 19.756L18.8159 19.3445L18.457 18.9329L17.6367 18.0584L17.1753 17.5954L16.8164 17.1839L16.4575 16.8238L16.0986 16.4122L15.4834 15.7434L15.022 15.229L12.9712 13.1713L12.6123 12.7597L12.2534 12.3996L11.8945 11.9881L10.5103 10.5991L10.1514 10.1876L7.17773 7.20385L6.81885 6.68942V6.48364Z" fill="#045A76"/>
<path d="M71.8799 1.69922H72.1875L72.2388 1.85355L72.1362 2.05932L71.5723 2.41943L70.957 2.83097L69.8291 3.60262L69.1626 4.1685L68.1372 4.83726L67.522 5.30025L66.8555 5.81468L66.1377 6.32912L65.2661 6.94644L64.3433 7.66664L63.5229 8.28396L63.1641 8.59262L62.4463 9.05561L61.7798 9.62149L61.2671 10.0845L60.0879 10.8561L59.3701 11.3191L58.7036 11.885L57.5757 12.6566L57.063 13.0168L56.4478 13.4283L55.9351 13.8398L55.2686 14.3543L54.0894 15.023L53.3716 15.6404L52.8076 16.0519L52.0898 16.5149L50.9619 17.2865L49.2188 18.5212L48.2959 19.0871L47.373 19.8073L46.7065 20.2703L46.1426 20.6304L45.1685 21.3506L44.5532 21.7621L43.7842 22.328L43.0151 22.791L42.1948 23.3569L41.5283 23.9227L40.708 24.4886L40.144 24.8487L39.7339 25.2088L38.9136 25.7747L37.9907 26.2891L37.5293 26.4435V26.5463H37.2729L37.1191 26.6492L36.8628 26.4435L36.2988 26.0319L35.4785 25.2603L34.9146 24.7458L34.5044 24.3857L33.7354 23.6141L33.3252 23.254L32.6074 22.6367L31.9409 22.0193L31.3257 21.4535L30.5054 20.6818L29.4287 19.6015L29.0698 19.1899L28.7109 18.8298V18.6755L29.2749 18.3669L31.2231 17.338L33.0688 16.5663L33.9404 16.1548L34.9146 15.6404L36.1963 15.0745L37.5293 14.5601L39.1699 13.737L39.939 13.3254L40.4004 13.1711L40.8105 13.0682L41.6821 12.7081L43.0151 12.0908L44.502 11.422L45.9375 10.8561L47.9883 9.87871L49.3726 9.20994L51.3208 8.43829L52.2949 7.87242L53.7305 7.20365L55.3198 6.58633L56.6016 5.96901L58.1396 5.24881L61.2158 4.21994L63.3179 3.65407L64.9072 3.29396L66.8555 2.93386L68.3936 2.57376L70.5469 2.00788L71.8799 1.69922Z" fill="#1E1B21"/>
</svg>
